<mxfile host="app.diagrams.net" agent="Mozilla/5.0 (Windows NT 10.0; Win64; x64) AppleWebKit/537.36 (KHTML, like Gecko) Chrome/128.0.0.0 Safari/537.36" version="24.7.12">
  <diagram name="ページ1" id="rdPiQkZG8qqKdzL-sWE9">
    <mxGraphModel dx="861" dy="599" grid="1" gridSize="10" guides="1" tooltips="1" connect="1" arrows="1" fold="1" page="0" pageScale="1" pageWidth="827" pageHeight="1169" math="0" shadow="0">
      <root>
        <mxCell id="0" />
        <mxCell id="1" parent="0" />
        <mxCell id="na1GcMEUGRaOm5ql-4mH-4" style="edgeStyle=none;curved=1;rounded=0;orthogonalLoop=1;jettySize=auto;html=1;entryX=0.5;entryY=0;entryDx=0;entryDy=0;fontSize=12;startSize=8;endSize=8;" parent="1" source="na1GcMEUGRaOm5ql-4mH-1" target="na1GcMEUGRaOm5ql-4mH-3" edge="1">
          <mxGeometry relative="1" as="geometry" />
        </mxCell>
        <mxCell id="na1GcMEUGRaOm5ql-4mH-1" value="s_timerButtonClicked" style="text;html=1;align=center;verticalAlign=middle;whiteSpace=wrap;rounded=0;fontSize=16;" parent="1" vertex="1">
          <mxGeometry x="-190" y="70" width="150" height="20" as="geometry" />
        </mxCell>
        <mxCell id="na1GcMEUGRaOm5ql-4mH-8" style="edgeStyle=none;curved=1;rounded=0;orthogonalLoop=1;jettySize=auto;html=1;fontSize=12;startSize=8;endSize=8;entryX=0.5;entryY=0;entryDx=0;entryDy=0;" parent="1" source="na1GcMEUGRaOm5ql-4mH-2" target="JamOzN3A-dqU3BE_QcK--2" edge="1">
          <mxGeometry relative="1" as="geometry">
            <mxPoint x="110" y="140" as="targetPoint" />
          </mxGeometry>
        </mxCell>
        <mxCell id="na1GcMEUGRaOm5ql-4mH-2" value="s_tick" style="text;html=1;align=center;verticalAlign=middle;whiteSpace=wrap;rounded=0;fontSize=16;" parent="1" vertex="1">
          <mxGeometry x="-90" y="130" width="50" height="20" as="geometry" />
        </mxCell>
        <mxCell id="na1GcMEUGRaOm5ql-4mH-6" style="edgeStyle=none;curved=1;rounded=0;orthogonalLoop=1;jettySize=auto;html=1;exitX=0.5;exitY=1;exitDx=0;exitDy=0;fontSize=12;startSize=8;endSize=8;entryX=0.252;entryY=1.055;entryDx=0;entryDy=0;entryPerimeter=0;" parent="1" source="na1GcMEUGRaOm5ql-4mH-3" target="na1GcMEUGRaOm5ql-4mH-5" edge="1">
          <mxGeometry relative="1" as="geometry">
            <mxPoint x="100" y="110" as="targetPoint" />
          </mxGeometry>
        </mxCell>
        <mxCell id="na1GcMEUGRaOm5ql-4mH-3" value="map" style="shape=offPageConnector;whiteSpace=wrap;html=1;direction=north;" parent="1" vertex="1">
          <mxGeometry y="60" width="80" height="40" as="geometry" />
        </mxCell>
        <mxCell id="na1GcMEUGRaOm5ql-4mH-10" style="edgeStyle=none;curved=1;rounded=0;orthogonalLoop=1;jettySize=auto;html=1;exitX=0.5;exitY=0;exitDx=0;exitDy=0;entryX=0.5;entryY=0;entryDx=0;entryDy=0;fontSize=12;startSize=8;endSize=8;" parent="1" source="na1GcMEUGRaOm5ql-4mH-5" target="na1GcMEUGRaOm5ql-4mH-9" edge="1">
          <mxGeometry relative="1" as="geometry" />
        </mxCell>
        <mxCell id="na1GcMEUGRaOm5ql-4mH-5" value="merge" style="shape=trapezoid;perimeter=trapezoidPerimeter;whiteSpace=wrap;html=1;fixedSize=1;direction=south;" parent="1" vertex="1">
          <mxGeometry x="140" y="50" width="60" height="120" as="geometry" />
        </mxCell>
        <mxCell id="na1GcMEUGRaOm5ql-4mH-7" value="s_add" style="text;html=1;align=center;verticalAlign=middle;whiteSpace=wrap;rounded=0;fontSize=16;" parent="1" vertex="1">
          <mxGeometry x="80" y="60" width="50" height="20" as="geometry" />
        </mxCell>
        <mxCell id="JamOzN3A-dqU3BE_QcK--6" style="edgeStyle=none;curved=1;rounded=0;orthogonalLoop=1;jettySize=auto;html=1;entryX=0;entryY=0.5;entryDx=0;entryDy=0;fontSize=12;startSize=8;endSize=8;" edge="1" parent="1" source="na1GcMEUGRaOm5ql-4mH-9" target="na1GcMEUGRaOm5ql-4mH-27">
          <mxGeometry relative="1" as="geometry" />
        </mxCell>
        <mxCell id="na1GcMEUGRaOm5ql-4mH-9" value="snapshot" style="shape=offPageConnector;whiteSpace=wrap;html=1;direction=north;" parent="1" vertex="1">
          <mxGeometry x="240" y="90" width="80" height="40" as="geometry" />
        </mxCell>
        <mxCell id="na1GcMEUGRaOm5ql-4mH-12" value="s_newTime" style="text;html=1;align=center;verticalAlign=middle;whiteSpace=wrap;rounded=0;fontSize=16;" parent="1" vertex="1">
          <mxGeometry x="460" y="240" width="90" height="20" as="geometry" />
        </mxCell>
        <mxCell id="na1GcMEUGRaOm5ql-4mH-14" style="edgeStyle=none;curved=0;rounded=0;orthogonalLoop=1;jettySize=auto;html=1;fontSize=12;startSize=8;endSize=8;jumpStyle=arc;entryX=0.5;entryY=0;entryDx=0;entryDy=0;" parent="1" target="na1GcMEUGRaOm5ql-4mH-23" edge="1">
          <mxGeometry relative="1" as="geometry">
            <mxPoint x="450" y="150" as="targetPoint" />
            <mxPoint x="560" y="110" as="sourcePoint" />
            <Array as="points">
              <mxPoint x="490" y="110" />
            </Array>
          </mxGeometry>
        </mxCell>
        <mxCell id="na1GcMEUGRaOm5ql-4mH-21" style="edgeStyle=none;curved=0;rounded=0;orthogonalLoop=1;jettySize=auto;html=1;exitX=0;exitY=0.5;exitDx=0;exitDy=0;entryX=0;entryY=0.25;entryDx=0;entryDy=0;fontSize=12;startSize=8;endSize=8;endArrow=diamond;endFill=0;" parent="1" source="na1GcMEUGRaOm5ql-4mH-15" target="na1GcMEUGRaOm5ql-4mH-9" edge="1">
          <mxGeometry relative="1" as="geometry">
            <Array as="points">
              <mxPoint x="260" y="240" />
            </Array>
          </mxGeometry>
        </mxCell>
        <mxCell id="JamOzN3A-dqU3BE_QcK--9" style="edgeStyle=none;curved=0;rounded=0;orthogonalLoop=1;jettySize=auto;html=1;exitX=0;exitY=0.5;exitDx=0;exitDy=0;fontSize=12;startSize=8;endSize=8;endArrow=diamond;endFill=0;entryX=0.5;entryY=0;entryDx=0;entryDy=0;" edge="1" parent="1" source="na1GcMEUGRaOm5ql-4mH-15" target="JamOzN3A-dqU3BE_QcK--10">
          <mxGeometry relative="1" as="geometry">
            <mxPoint x="720" y="300" as="targetPoint" />
            <Array as="points">
              <mxPoint x="260" y="240" />
              <mxPoint x="260" y="300" />
            </Array>
          </mxGeometry>
        </mxCell>
        <mxCell id="na1GcMEUGRaOm5ql-4mH-15" value="hold&lt;div&gt;0&lt;/div&gt;" style="rounded=1;whiteSpace=wrap;html=1;" parent="1" vertex="1">
          <mxGeometry x="390" y="220" width="60" height="40" as="geometry" />
        </mxCell>
        <mxCell id="na1GcMEUGRaOm5ql-4mH-22" value="c_remaingTime" style="text;html=1;align=center;verticalAlign=middle;whiteSpace=wrap;rounded=0;fontSize=16;" parent="1" vertex="1">
          <mxGeometry x="260" y="240" width="120" height="20" as="geometry" />
        </mxCell>
        <mxCell id="JamOzN3A-dqU3BE_QcK--7" style="edgeStyle=none;curved=0;rounded=0;orthogonalLoop=1;jettySize=auto;html=1;entryX=1;entryY=0.5;entryDx=0;entryDy=0;fontSize=12;startSize=8;endSize=8;" edge="1" parent="1" source="na1GcMEUGRaOm5ql-4mH-23" target="na1GcMEUGRaOm5ql-4mH-15">
          <mxGeometry relative="1" as="geometry">
            <Array as="points">
              <mxPoint x="490" y="240" />
            </Array>
          </mxGeometry>
        </mxCell>
        <mxCell id="na1GcMEUGRaOm5ql-4mH-23" value="map" style="shape=offPageConnector;whiteSpace=wrap;html=1;direction=east;" parent="1" vertex="1">
          <mxGeometry x="470" y="150" width="40" height="80" as="geometry" />
        </mxCell>
        <mxCell id="na1GcMEUGRaOm5ql-4mH-30" style="edgeStyle=none;curved=1;rounded=0;orthogonalLoop=1;jettySize=auto;html=1;entryX=0.5;entryY=0;entryDx=0;entryDy=0;fontSize=12;startSize=8;endSize=8;" parent="1" source="na1GcMEUGRaOm5ql-4mH-27" target="na1GcMEUGRaOm5ql-4mH-29" edge="1">
          <mxGeometry relative="1" as="geometry" />
        </mxCell>
        <mxCell id="na1GcMEUGRaOm5ql-4mH-27" value="filter&lt;div&gt;=== 0&lt;/div&gt;" style="rhombus;whiteSpace=wrap;html=1;" parent="1" vertex="1">
          <mxGeometry x="560" y="75" width="120" height="70" as="geometry" />
        </mxCell>
        <mxCell id="na1GcMEUGRaOm5ql-4mH-31" style="edgeStyle=none;curved=1;rounded=0;orthogonalLoop=1;jettySize=auto;html=1;fontSize=12;startSize=8;endSize=8;" parent="1" source="na1GcMEUGRaOm5ql-4mH-29" edge="1">
          <mxGeometry relative="1" as="geometry">
            <mxPoint x="910" y="110" as="targetPoint" />
          </mxGeometry>
        </mxCell>
        <mxCell id="na1GcMEUGRaOm5ql-4mH-29" value="map" style="shape=offPageConnector;whiteSpace=wrap;html=1;direction=north;" parent="1" vertex="1">
          <mxGeometry x="720" y="90" width="80" height="40" as="geometry" />
        </mxCell>
        <mxCell id="na1GcMEUGRaOm5ql-4mH-32" value="s_beep" style="text;html=1;align=center;verticalAlign=middle;whiteSpace=wrap;rounded=0;fontSize=16;" parent="1" vertex="1">
          <mxGeometry x="820" y="90" width="60" height="20" as="geometry" />
        </mxCell>
        <mxCell id="na1GcMEUGRaOm5ql-4mH-34" value="c_remaingTime" style="text;html=1;align=center;verticalAlign=middle;whiteSpace=wrap;rounded=0;fontSize=16;" parent="1" vertex="1">
          <mxGeometry x="800" y="280" width="120" height="20" as="geometry" />
        </mxCell>
        <mxCell id="JamOzN3A-dqU3BE_QcK--3" style="edgeStyle=none;curved=1;rounded=0;orthogonalLoop=1;jettySize=auto;html=1;exitX=0.5;exitY=1;exitDx=0;exitDy=0;entryX=0.744;entryY=1.026;entryDx=0;entryDy=0;fontSize=12;startSize=8;endSize=8;entryPerimeter=0;" edge="1" parent="1" source="JamOzN3A-dqU3BE_QcK--2" target="na1GcMEUGRaOm5ql-4mH-5">
          <mxGeometry relative="1" as="geometry" />
        </mxCell>
        <mxCell id="JamOzN3A-dqU3BE_QcK--2" value="map" style="shape=offPageConnector;whiteSpace=wrap;html=1;direction=north;" vertex="1" parent="1">
          <mxGeometry y="120" width="80" height="40" as="geometry" />
        </mxCell>
        <mxCell id="JamOzN3A-dqU3BE_QcK--4" value="s_accumulatedTime" style="text;html=1;align=center;verticalAlign=middle;whiteSpace=wrap;rounded=0;fontSize=16;" vertex="1" parent="1">
          <mxGeometry x="330" y="90" width="140" height="20" as="geometry" />
        </mxCell>
        <mxCell id="JamOzN3A-dqU3BE_QcK--13" style="edgeStyle=none;curved=1;rounded=0;orthogonalLoop=1;jettySize=auto;html=1;fontSize=12;startSize=8;endSize=8;endArrow=diamond;endFill=0;" edge="1" parent="1" source="JamOzN3A-dqU3BE_QcK--10">
          <mxGeometry relative="1" as="geometry">
            <mxPoint x="920" y="300" as="targetPoint" />
          </mxGeometry>
        </mxCell>
        <mxCell id="JamOzN3A-dqU3BE_QcK--10" value="map" style="shape=offPageConnector;whiteSpace=wrap;html=1;direction=north;" vertex="1" parent="1">
          <mxGeometry x="720" y="280" width="80" height="40" as="geometry" />
        </mxCell>
      </root>
    </mxGraphModel>
  </diagram>
</mxfile>
